HIERARCHY
ROOT Pelvis
{
	OFFSET 0.000000 0.000000 0.000000
	CHANNELS 6 Xposition Yposition Zposition Xrotation Yrotation Zrotation
	JOINT LeftUpLeg_virtual
	{
		OFFSET 0.000000 0.000000 0.000000
		CHANNELS 3 Xrotation Yrotation Zrotation
		JOINT LeftUpLeg
		{
			OFFSET 18.735201 -5.666702 -4.541200
			CHANNELS 3 Xrotation Yrotation Zrotation
			JOINT LeftLeg
			{
				OFFSET -0.021200 -31.938179 0.493100
				CHANNELS 3 Xrotation Yrotation Zrotation
				JOINT LeftFoot
				{
					OFFSET 0.021200 -31.938179 -4.336299
					CHANNELS 3 Xrotation Yrotation Zrotation
					JOINT LeftToeBase
					{
						OFFSET 0.943001 -26.722000 15.023500
						CHANNELS 3 Xrotation Yrotation Zrotation
						End Site
						{
							OFFSET 0 0 0
						}
					}
				}
			}
		}
	}
	JOINT RightUpLeg_virtual
	{
		OFFSET 0.000000 0.000000 0.000000
		CHANNELS 3 Xrotation Yrotation Zrotation
		JOINT RightUpLeg
		{
			OFFSET -18.735201 -5.666702 -4.541200
			CHANNELS 3 Xrotation Yrotation Zrotation
			JOINT RightLeg
			{
				OFFSET 0.018946 -31.938133 0.493100
				CHANNELS 3 Xrotation Yrotation Zrotation
				JOINT RightFoot
				{
					OFFSET -0.018946 -31.938126 -4.336299
					CHANNELS 3 Xrotation Yrotation Zrotation
					JOINT RightToeBase
					{
						OFFSET -0.943001 -26.722004 15.023500
						CHANNELS 3 Xrotation Yrotation Zrotation
						End Site
						{
							OFFSET 0 0 0
						}
					}
				}
			}
		}
	}
	JOINT Hips_virtual
	{
		OFFSET 0.000000 0.000000 0.000000
		CHANNELS 3 Xrotation Yrotation Zrotation
		JOINT Hips
		{
			OFFSET -0.000000 -0.000000 -0.000000
			CHANNELS 3 Xrotation Yrotation Zrotation
			JOINT Spine
			{
				OFFSET 0.000000 10.199997 -0.299500
				CHANNELS 3 Xrotation Yrotation Zrotation
				JOINT Spine1
				{
					OFFSET 0.000000 11.900002 -1.516600
					CHANNELS 3 Xrotation Yrotation Zrotation
					JOINT Spine2
					{
						OFFSET 0.000000 13.600006 -2.842500
						CHANNELS 3 Xrotation Yrotation Zrotation
						JOINT Neck_virtual
						{
							OFFSET 0.000000 0.000000 0.000000
							CHANNELS 3 Xrotation Yrotation Zrotation
							JOINT Neck
							{
								OFFSET 0.000000 9.624100 -2.890100
								CHANNELS 3 Xrotation Yrotation Zrotation
								JOINT Head
								{
									OFFSET 0.000000 14.068802 -1.351900
									CHANNELS 3 Xrotation Yrotation Zrotation
									End Site
									{
										OFFSET 0 0 0
									}
								}
							}
						}
						JOINT LeftShoulder_virtual
						{
							OFFSET 0.000000 0.000000 0.000000
							CHANNELS 3 Xrotation Yrotation Zrotation
							JOINT LeftShoulder
							{
								OFFSET 15.263000 10.923401 -0.547700
								CHANNELS 3 Xrotation Yrotation Zrotation
								JOINT LeftArm
								{
									OFFSET 25.438599 -2.830597 -13.032500
									CHANNELS 3 Xrotation Yrotation Zrotation
									JOINT LeftForeArm
									{
										OFFSET 29.960503 0.000000 0.000000
										CHANNELS 3 Xrotation Yrotation Zrotation
										JOINT LeftHand
										{
											OFFSET 27.849251 0.000000 0.000000
											CHANNELS 3 Xrotation Yrotation Zrotation
											End Site
											{
												OFFSET 0 0 0
											}
										}
									}
								}
							}
						}
						JOINT RightShoulder_virtual
						{
							OFFSET 0.000000 0.000000 0.000000
							CHANNELS 3 Xrotation Yrotation Zrotation
							JOINT RightShoulder
							{
								OFFSET -15.263000 10.923401 -0.547700
								CHANNELS 3 Xrotation Yrotation Zrotation
								JOINT RightArm
								{
									OFFSET -25.438599 -2.830597 -13.032500
									CHANNELS 3 Xrotation Yrotation Zrotation
									JOINT RightForeArm
									{
										OFFSET -29.960503 0.000000 0.000000
										CHANNELS 3 Xrotation Yrotation Zrotation
										JOINT RightHand
										{
											OFFSET -27.849251 0.000000 0.000000
											CHANNELS 3 Xrotation Yrotation Zrotation
											End Site
											{
												OFFSET 0 0 0
											}
										}
									}
								}
							}
						}
					}
				}
			}
		}
	}
}
MOTION
Frames: 10
Frame Time: 0.03333333
2.277217 92.784447 3.866180 0.000000 0.000000 0.000000 2.410513 0.175038 1.030984 -39.547833 2.396398 8.912885 53.705600 -0.451220 -2.039513 16.312478 2.272404 -5.783475 0.000000 0.000000 0.000000 2.257095 -0.512891 0.379272 -18.241369 -6.761816 2.155277 18.289860 -0.695985 -4.086432 -8.615572 0.474961 3.079627 0.000000 0.000000 0.000000 3.104203 -0.193435 0.389551 -0.972689 -0.559603 -0.681404 6.841922 -1.300275 0.879714 1.752751 -2.517540 1.408194 0.000000 0.000000 0.000000 1.617906 -1.627901 1.656541 -0.503803 -0.444714 0.590289 0.000000 0.000000 0.000000 1.634366 -1.473191 1.175329 1.424722 -10.564091 -13.644309 6.084017 -20.016185 -60.027350 1.577360 -20.826852 0.348238 0.000000 0.000000 0.000000 1.802164 -1.508720 1.315665 0.233960 3.643992 12.243031 9.593693 21.274685 46.604256 -0.462729 32.293729 1.975128 0.000000 0.000000 0.000000 
3.245513 92.653061 5.182262 0.000000 0.000000 0.000000 2.734292 -0.328349 0.911002 -38.475617 1.852687 9.959383 52.185511 0.120428 -1.632303 14.761856 1.626066 -6.040409 0.000000 0.000000 0.000000 2.392990 -0.691518 0.246726 -18.087401 -6.515115 1.436916 18.995789 0.072535 -3.982357 -8.570522 1.003631 4.603190 0.000000 0.000000 0.000000 3.202666 -0.518868 0.400874 -1.226131 -0.439170 -0.724323 7.058603 -0.804494 0.883904 1.821637 -1.947255 1.169423 0.000000 0.000000 0.000000 1.783167 -1.175274 1.400738 -0.595238 -0.438094 0.561049 0.000000 0.000000 0.000000 1.605264 -0.974421 0.992677 1.413717 -10.236840 -13.740718 5.199251 -19.300358 -59.907029 1.459375 -20.045594 0.424062 0.000000 0.000000 0.000000 1.774407 -1.074010 1.080141 0.279234 3.944829 12.622312 8.813022 22.884658 46.345057 -0.406319 34.245482 1.922183 0.000000 0.000000 0.000000 
5.171091 92.343643 7.258698 0.000000 0.000000 0.000000 3.036993 -0.969479 0.810832 -35.979814 1.536286 11.616904 48.099309 1.978451 -0.874865 13.008018 2.314298 -5.622057 0.000000 0.000000 0.000000 2.321313 -0.719324 0.169927 -17.795389 -6.808891 -0.449545 20.936828 0.981002 -3.588411 -8.737754 1.699921 6.487601 0.000000 0.000000 0.000000 3.079199 -0.821184 0.527567 -1.265353 -0.568737 -0.908387 7.355792 0.293214 0.716720 1.901000 -0.756720 0.811708 0.000000 0.000000 0.000000 2.004606 -0.040794 0.984223 -0.537284 -0.439072 0.448934 0.000000 0.000000 0.000000 1.623014 0.190402 0.633499 1.343089 -10.444472 -14.279293 4.141009 -17.472163 -59.462609 1.372774 -19.799931 0.439623 0.000000 0.000000 0.000000 1.826165 0.030205 0.752830 0.127526 4.667574 13.056074 9.305163 23.938698 45.347272 -0.552875 38.758561 1.908041 0.000000 0.000000 0.000000 
7.681755 91.915054 9.584545 0.000000 0.000000 0.000000 3.113086 -1.746327 0.694099 -32.758878 1.488110 13.725456 42.131831 4.247493 0.248973 11.053669 3.446051 -5.662502 0.000000 0.000000 0.000000 2.079784 -0.864485 0.120562 -17.036193 -7.389471 -3.019997 22.994921 1.805653 -3.301083 -10.036896 2.093425 7.871773 0.000000 0.000000 0.000000 2.814518 -1.190104 0.674465 -1.492215 -0.693300 -0.837809 7.656609 1.808263 0.513457 2.037296 0.889524 0.395644 0.000000 0.000000 0.000000 2.259920 1.587824 0.479871 -0.375259 -0.446869 0.283271 0.000000 0.000000 0.000000 1.723404 1.830874 0.153334 1.218507 -11.211658 -15.239721 3.057360 -14.980517 -58.835646 1.286058 -19.999222 0.370049 0.000000 0.000000 0.000000 1.966568 1.654876 0.388955 -0.182109 5.822167 13.475709 11.140366 24.223397 43.600096 -0.869464 45.196058 1.986589 0.000000 0.000000 0.000000 
10.496777 91.463539 12.219242 0.000000 0.000000 0.000000 2.885574 -2.660240 0.561047 -29.805825 1.743300 16.236820 35.685334 6.014905 1.452642 9.240787 4.051398 -7.478432 0.000000 0.000000 0.000000 1.779083 -1.349194 0.074274 -15.435644 -7.839829 -5.643722 24.132692 2.625609 -3.366271 -12.717979 2.080261 8.768701 0.000000 0.000000 0.000000 2.273693 -1.850516 0.740190 -1.405114 -0.483933 -0.736768 7.881530 3.586822 0.412931 2.247444 2.818796 -0.024542 0.000000 0.000000 0.000000 2.543026 3.499340 -0.037090 -0.157899 -0.447793 0.114334 0.000000 0.000000 0.000000 1.905557 3.729680 -0.354866 1.052729 -12.404272 -16.441041 1.828047 -12.111600 -58.267873 1.174025 -20.516992 0.217759 0.000000 0.000000 0.000000 2.199943 3.591426 0.018242 -0.636540 7.430769 13.839127 13.798465 23.690159 41.351362 -1.344678 52.704721 2.229938 0.000000 0.000000 0.000000 
13.328030 90.880638 15.093658 0.000000 0.000000 0.000000 2.324126 -3.775960 0.366115 -27.905018 2.437679 19.151031 30.298514 6.809199 2.227362 7.706533 3.447569 -11.660198 0.000000 0.000000 0.000000 1.394328 -2.153057 -0.053956 -12.976182 -7.989356 -8.008539 24.101055 3.685872 -3.725830 -16.026673 1.855920 9.767681 0.000000 0.000000 0.000000 1.444656 -2.684503 0.602972 -1.228460 -0.091498 -0.895498 7.997558 5.412003 0.510237 2.528175 4.810209 -0.404588 0.000000 0.000000 0.000000 2.814371 5.470672 -0.506912 0.065562 -0.442889 -0.013659 0.000000 0.000000 0.000000 2.132890 5.686490 -0.815985 0.833973 -13.808298 -17.753086 0.538768 -9.081898 -57.891461 0.997989 -21.173709 0.010733 0.000000 0.000000 0.000000 2.471798 5.596707 -0.322064 -1.135727 9.362682 14.161391 16.419968 22.346033 38.912202 -1.895522 60.081124 2.588012 0.000000 0.000000 0.000000 
15.835835 90.188362 17.943569 0.000000 0.000000 0.000000 1.522527 -4.776460 0.036946 -27.298328 3.580922 22.340166 26.571493 6.681175 2.339407 6.877316 1.476573 -17.609312 0.000000 0.000000 0.000000 0.890876 -3.033668 -0.338546 -10.197699 -7.942084 -10.044744 23.409234 5.094808 -4.098478 -18.713221 1.670239 11.229932 0.000000 0.000000 0.000000 0.543352 -3.605289 0.252014 -1.035538 0.403549 -1.133267 8.004791 7.143419 0.740125 2.846537 6.738967 -0.742152 0.000000 0.000000 0.000000 3.060902 7.361405 -0.898070 0.251993 -0.440047 -0.089456 0.000000 0.000000 0.000000 2.387299 7.556967 -1.183915 0.568891 -15.205845 -19.052043 -0.762498 -5.900479 -57.739653 0.739700 -21.830502 -0.216363 0.000000 0.000000 0.000000 2.759186 7.512201 -0.621129 -1.634319 11.391827 14.428407 18.160749 20.505036 36.562918 -2.472954 66.426233 3.036262 0.000000 0.000000 0.000000 
17.972755 89.432930 20.501299 0.000000 0.000000 0.000000 0.559672 -5.311442 -0.443233 -28.022273 4.858346 25.460329 25.117712 6.217933 1.855829 6.609690 -1.304571 -23.537206 0.000000 0.000000 0.000000 0.164188 -3.668070 -0.845104 -7.381945 -7.870430 -11.683382 22.445407 6.689600 -4.153553 -20.245797 1.617345 12.937564 0.000000 0.000000 0.000000 -0.335448 -4.464897 -0.301637 -0.738601 0.706759 -1.347770 7.952989 8.655451 1.022455 3.132543 8.507030 -1.013810 0.000000 0.000000 0.000000 3.257891 9.099917 -1.180537 0.392587 -0.437428 -0.102356 0.000000 0.000000 0.000000 2.644966 9.275927 -1.437501 0.273651 -16.392142 -20.194310 -2.033969 -2.535419 -57.775628 0.428823 -22.433652 -0.423373 0.000000 0.000000 0.000000 3.021822 9.243423 -0.873760 -2.088897 13.377045 14.733780 18.428918 18.369463 34.677752 -2.923684 71.199490 3.437344 0.000000 0.000000 0.000000 
19.669544 88.611893 22.625832 0.000000 0.000000 0.000000 -0.369187 -5.512749 -1.027201 -29.465282 5.651833 27.996110 25.832849 5.846887 1.177307 6.259167 -4.010269 -27.615717 0.000000 0.000000 0.000000 -0.689152 -4.047175 -1.486536 -4.943866 -7.863055 -12.959826 21.485062 8.173864 -3.811831 -20.659159 1.786651 14.588319 0.000000 0.000000 0.000000 -1.109072 -5.138476 -0.932462 -0.687399 0.931151 -1.579707 7.960504 9.908465 1.266550 3.368031 10.078310 -1.222776 0.000000 0.000000 0.000000 3.402827 10.658080 -1.353495 0.479020 -0.437265 -0.060108 0.000000 0.000000 0.000000 2.873525 10.824128 -1.603896 -0.030019 -17.256258 -21.160823 -3.197008 0.822307 -57.814792 0.108425 -23.016725 -0.572670 0.000000 0.000000 0.000000 3.195961 10.777401 -1.086320 -2.464664 15.181064 15.104535 17.144876 16.275975 33.228532 -2.936087 74.210593 3.455565 0.000000 0.000000 0.000000 
20.925274 87.962677 24.397333 0.000000 0.000000 0.000000 -1.103272 -5.795106 -1.582743 -30.751120 5.735182 29.557705 28.110140 5.686374 0.615579 5.374487 -5.879628 -29.114139 0.000000 0.000000 0.000000 -1.441501 -4.368632 -2.079410 -3.154073 -7.720239 -13.934028 20.625302 9.399936 -3.327079 -20.191590 2.296060 16.140295 0.000000 0.000000 0.000000 -1.654476 -5.782579 -1.488952 -0.638564 1.023715 -1.853390 8.155775 10.984875 1.375434 3.593343 11.517731 -1.403978 0.000000 0.000000 0.000000 3.548625 12.085541 -1.469726 0.513841 -0.444034 0.009657 0.000000 0.000000 0.000000 3.081666 12.239830 -1.735138 -0.330605 -17.851621 -21.994580 -4.255877 3.944647 -57.751046 -0.165815 -23.723525 -0.673366 0.000000 0.000000 0.000000 3.321906 12.166812 -1.282941 -2.799713 16.781616 15.471324 14.721117 14.322106 32.064354 -2.563020 75.813187 3.151391 0.000000 0.000000 0.000000 
